<?xml version="1.0" standalone="no"?>
<!DOCTYPE svg PUBLIC "-//W3C//DTD SVG 20010904//EN"
 "http://www.w3.org/TR/2001/REC-SVG-20010904/DTD/svg10.dtd">
<svg version="1.0" xmlns="http://www.w3.org/2000/svg"
 width="334.000000pt" height="334.000000pt" viewBox="0 0 334.000000 334.000000"
 preserveAspectRatio="xMidYMid meet">
<metadata>
Created by potrace 1.11, written by Peter Selinger 2001-2013
</metadata>
<g transform="translate(0.000000,334.000000) scale(0.100000,-0.100000)"
fill="#000000" stroke="none">
<path d="M1455 3212 c-121 -70 -444 -258 -717 -417 l-498 -289 0 -836 0 -836
63 -36 c34 -20 235 -137 447 -260 212 -124 489 -284 615 -358 127 -73 242
-142 257 -152 15 -11 36 -20 46 -21 10 0 99 46 197 103 99 58 192 112 207 120
15 8 254 148 532 310 l506 295 0 835 0 835 -377 220 c-208 121 -531 309 -717
417 -187 109 -340 198 -340 198 -1 0 -100 -58 -221 -128z m610 -172 c182 -106
346 -201 365 -212 19 -11 166 -97 327 -190 l291 -170 0 -798 0 -798 -391 -228
c-216 -125 -444 -258 -507 -295 -63 -36 -194 -113 -290 -169 -96 -56 -179
-103 -185 -103 -5 0 -158 87 -340 193 -534 311 -947 552 -991 577 l-41 23 0
799 0 800 351 204 c193 112 502 292 686 400 l335 195 30 -18 c17 -10 179 -105
360 -210z"/>
<path d="M1100 2684 l-575 -336 0 -679 c0 -590 2 -680 15 -692 13 -12 84 -54
279 -165 25 -14 68 -38 95 -55 53 -31 94 -55 161 -92 22 -13 128 -74 235 -135
107 -62 215 -124 239 -138 25 -14 68 -38 95 -54 36 -21 55 -27 66 -21 8 5 31
18 50 29 19 10 37 21 40 24 3 3 14 10 25 16 31 17 262 151 670 387 l370 215 1
673 0 674 -26 16 c-26 16 -190 111 -555 322 -104 60 -206 119 -225 130 -19 11
-55 31 -80 45 -25 14 -102 58 -172 99 -69 40 -128 73 -130 73 -2 0 -262 -151
-578 -336z m713 186 c70 -40 130 -76 132 -80 4 -6 -869 -523 -965 -573 -8 -4
-26 -14 -39 -22 -23 -12 -29 -11 -65 11 -23 13 -83 48 -133 76 -51 28 -93 55
-93 58 0 4 149 94 332 201 183 107 413 242 512 300 100 58 183 105 186 104 3
-1 62 -35 133 -75z m394 -226 c73 -42 133 -79 133 -83 -1 -6 -1005 -594 -1025
-599 -14 -4 -264 139 -267 153 -1 6 221 141 494 300 273 160 500 294 504 298
14 13 28 7 161 -69z m323 -187 c174 -97 200 -112 200 -117 0 -3 -66 -44 -147
-91 -82 -47 -314 -183 -516 -301 l-369 -216 -140 80 c-77 44 -136 84 -131 89
10 10 1016 599 1023 599 3 -1 39 -20 80 -43z m-1695 -349 c138 -79 292 -168
343 -198 l92 -52 0 -393 c0 -335 2 -394 15 -405 8 -7 21 -10 30 -6 13 4 15 58
17 386 l3 380 158 -91 157 -91 0 -624 c0 -343 -2 -624 -5 -624 -8 0 -689 393
-695 401 -3 4 -5 186 -4 404 1 412 -1 427 -41 411 -13 -5 -15 -56 -15 -391 0
-212 -3 -385 -6 -385 -6 0 -303 167 -313 176 -3 2 -4 176 -3 387 1 210 2 491
2 625 0 134 3 241 8 239 4 -2 120 -69 257 -149z m1989 -200 c1 -269 -2 -344
-11 -336 -7 5 -18 8 -26 6 -28 -6 -696 -413 -702 -427 -9 -22 14 -41 38 -32
12 5 94 53 182 107 88 53 169 102 180 108 58 32 302 181 318 194 16 14 17 12
18 -24 0 -49 0 -441 0 -470 -1 -18 -74 -64 -390 -247 -213 -124 -404 -234
-422 -245 -19 -11 -85 -49 -148 -86 -63 -36 -116 -64 -119 -61 -4 4 -6 994 -3
1202 l1 42 93 54 c50 30 112 65 137 79 25 14 182 105 350 203 168 98 321 186
340 197 19 11 60 35 90 53 30 18 59 32 64 31 5 -1 9 -155 10 -348z"/>
</g>
</svg>
